<svg width="233" height="143" viewBox="0 0 233 143" fill="none" xmlns="http://www.w3.org/2000/svg">
<path d="M22.6759 74.36C22.9949 75.515 23.4942 76.5738 24.1738 77.55C24.8395 78.5125 25.6439 79.365 26.5592 80.08C27.4746 80.795 28.5009 81.345 29.6382 81.7438C30.7754 82.1425 31.982 82.3488 33.2025 82.335C35.0748 82.335 36.7114 81.95 38.0983 81.1663C39.4991 80.3963 40.6086 79.5163 41.4407 78.5125H48.1949C47.557 79.8738 46.711 81.1388 45.7124 82.2663C44.6999 83.4213 43.5349 84.425 42.2451 85.2775C40.9276 86.1438 39.4991 86.8175 38.0012 87.2713C36.4895 87.7663 34.8807 88 33.2025 88C30.928 88 28.7783 87.56 26.7673 86.6938C24.7979 85.855 23.0226 84.645 21.5109 83.1463C19.9992 81.6338 18.7926 79.86 17.9604 77.9075C17.0728 75.8863 16.629 73.7 16.6429 71.5C16.6429 69.2313 17.0728 67.1 17.9604 65.0925C18.8064 63.14 20.013 61.3525 21.5109 59.8538C23.0226 58.355 24.8117 57.145 26.7673 56.3063C28.7921 55.4263 30.9835 54.9863 33.2025 55C35.477 55 37.6129 55.44 39.6377 56.3063C41.6071 57.145 43.3824 58.355 44.8941 59.8538C46.4058 61.3663 47.6124 63.14 48.4585 65.0925C49.3322 67.1 49.776 69.2313 49.776 71.5C49.776 72.0225 49.7621 72.5175 49.7205 72.985C49.6789 73.4663 49.6235 73.92 49.5402 74.36H22.6759ZM43.7291 68.695C43.4101 67.5538 42.9247 66.4675 42.259 65.4775C41.6071 64.5013 40.8027 63.635 39.8735 62.92C38.9443 62.205 37.9041 61.6413 36.7946 61.2563C35.6435 60.8575 34.423 60.6513 33.2025 60.665C31.982 60.665 30.7893 60.8713 29.6382 61.2838C28.5148 61.6963 27.4746 62.26 26.5315 62.975C25.6023 63.69 24.7979 64.5425 24.1321 65.505C23.4664 66.4813 22.981 67.5538 22.662 68.695H43.7291ZM50.7885 58.9325L54.8521 55L66.932 67.4438L79.012 55L83.0756 58.9325L70.8708 71.5L83.0756 84.0675L79.012 88L66.932 75.5563L54.8521 88L50.7885 84.0675L62.9794 71.5L50.7885 58.9325ZM86.5983 70.6613C86.5983 68.5163 87.0005 66.495 87.8188 64.5838C88.6094 62.7138 89.7605 61.0225 91.2029 59.5788C92.6453 58.1488 94.3511 57.0075 96.2235 56.21C98.1513 55.3988 100.232 54.9725 102.326 54.9863C104.476 54.9863 106.514 55.3988 108.428 56.21C110.301 56.9938 112.006 58.1488 113.449 59.5788C114.891 61.0225 116.028 62.7138 116.819 64.5838C117.637 66.5088 118.053 68.5713 118.039 70.6613V87.0375H111.826V70.3588C111.84 69.0938 111.576 67.8288 111.077 66.6738C110.606 65.5463 109.912 64.5288 109.052 63.6625C108.179 62.7963 107.166 62.1088 106.029 61.6413C104.864 61.1463 103.602 60.885 102.326 60.8988C101.008 60.8988 99.7739 61.1463 98.6228 61.6413C97.4717 62.1363 96.4592 62.81 95.5994 63.6625C94.7395 64.5288 94.046 65.5463 93.5606 66.6738C93.0613 67.8425 92.7978 69.0938 92.8117 70.3725V87.0513H86.5983V70.6613ZM128.4 74.36C128.719 75.515 129.218 76.5738 129.898 77.55C130.563 78.5125 131.368 79.365 132.283 80.08C133.198 80.795 134.225 81.345 135.362 81.7438C136.499 82.1425 137.706 82.3488 138.926 82.335C140.799 82.335 142.435 81.95 143.836 81.1663C145.223 80.3963 146.346 79.5163 147.178 78.5125H153.933C153.295 79.8738 152.449 81.1388 151.45 82.2663C150.438 83.4213 149.273 84.425 147.983 85.2775C146.665 86.1438 145.237 86.8175 143.739 87.2713C142.199 87.7525 140.604 87.9863 138.926 87.9863C136.652 87.9863 134.516 87.5463 132.491 86.68C130.522 85.8413 128.746 84.6313 127.235 83.1325C125.723 81.62 124.516 79.8463 123.67 77.8938C122.797 75.8725 122.339 73.6863 122.353 71.4863C122.353 69.2175 122.797 67.0863 123.67 65.0788C124.516 63.1263 125.723 61.3525 127.235 59.84C128.746 58.3413 130.535 57.1313 132.491 56.2925C134.516 55.4125 136.707 54.9725 138.912 54.9863C141.187 54.9863 143.323 55.4263 145.348 56.2925C147.317 57.1313 149.092 58.3413 150.604 59.84C152.116 61.3525 153.322 63.1263 154.168 65.0788C155.042 67.0863 155.486 69.2175 155.486 71.4863C155.486 72.0088 155.472 72.5038 155.43 72.9713C155.389 73.4525 155.333 73.9063 155.25 74.3463L128.4 74.36ZM149.453 68.695C149.134 67.5538 148.648 66.4675 147.983 65.4775C147.331 64.5013 146.527 63.635 145.597 62.92C144.668 62.205 143.628 61.6413 142.518 61.2563C141.367 60.8575 140.147 60.6513 138.926 60.665C137.706 60.665 136.513 60.8713 135.362 61.2838C134.239 61.6963 133.198 62.26 132.255 62.975C131.326 63.69 130.522 64.5425 129.87 65.505C129.204 66.4813 128.719 67.5538 128.4 68.695H149.453ZM172.947 88C169.313 88 166.179 87.1613 163.53 85.47C160.881 83.7788 159.023 81.4688 157.941 78.5263H164.584C165.416 79.7913 166.581 80.7813 168.079 81.4825C169.591 82.1838 171.227 82.5413 172.892 82.5275C174.958 82.5275 176.567 82.1563 177.704 81.4275C178.841 80.6988 179.41 79.695 179.41 78.4163C179.41 77.385 178.994 76.5875 178.19 76.0375C177.371 75.4875 176.012 75.02 174.098 74.6625L169.438 73.7688C165.777 73.095 163.1 72.0225 161.422 70.5513C159.744 69.08 158.912 67.1 158.912 64.5975C158.912 63.2088 159.217 61.93 159.841 60.7613C160.465 59.5788 161.339 58.5475 162.407 57.7225C163.502 56.87 164.806 56.21 166.318 55.7288C167.829 55.2475 169.508 55.0138 171.338 55.0138C174.722 55.0138 177.663 55.8113 180.131 57.4338C182.6 59.0425 184.334 61.27 185.332 64.13H178.689C178.009 62.975 177.025 62.0813 175.735 61.4488C174.445 60.8163 172.989 60.5 171.394 60.5C169.48 60.5 167.996 60.8438 166.942 61.545C165.888 62.2463 165.361 63.2225 165.361 64.4875C165.361 65.395 165.763 66.1375 166.581 66.6875C167.399 67.2375 168.745 67.705 170.617 68.0488L175.277 68.9425C178.897 69.6163 181.574 70.7163 183.293 72.2425C185.013 73.7688 185.859 75.79 185.859 78.2925C185.859 79.7225 185.54 81.0288 184.902 82.1975C184.236 83.3938 183.335 84.4388 182.239 85.2638C181.102 86.1438 179.743 86.8175 178.148 87.285C176.553 87.7663 174.819 88 172.947 88ZM203.445 88C199.811 88 196.677 87.1613 194.028 85.47C191.379 83.7788 189.521 81.4688 188.439 78.5263H195.068C195.9 79.7913 197.079 80.7813 198.563 81.4825C200.075 82.1838 201.711 82.5413 203.376 82.5275C205.442 82.5275 207.051 82.1563 208.188 81.4275C209.326 80.6988 209.894 79.695 209.894 78.4163C209.894 77.385 209.478 76.5875 208.674 76.0375C207.855 75.4875 206.496 75.02 204.582 74.6625L199.922 73.7688C196.247 73.095 193.584 72.0225 191.906 70.5513C190.228 69.08 189.396 67.1 189.396 64.5975C189.396 63.2088 189.701 61.93 190.325 60.7613C190.949 59.5788 191.823 58.5475 192.891 57.7225C193.986 56.87 195.29 56.21 196.802 55.7288C198.314 55.2475 199.992 55.0138 201.822 55.0138C205.206 55.0138 208.147 55.8113 210.615 57.4338C213.084 59.0425 214.818 61.27 215.816 64.13H209.173C208.493 62.975 207.509 62.0813 206.219 61.4488C204.929 60.8163 203.473 60.5 201.878 60.5C199.964 60.5 198.48 60.8438 197.426 61.545C196.372 62.2463 195.845 63.2225 195.845 64.4875C195.845 65.395 196.247 66.1375 197.065 66.6875C197.884 67.2375 199.229 67.705 201.101 68.0488L205.761 68.9425C209.381 69.6163 212.058 70.7163 213.778 72.2425C215.497 73.7688 216.343 75.79 216.343 78.2925C216.343 79.7225 216.024 81.0288 215.386 82.1975C214.721 83.3938 213.819 84.4388 212.723 85.2638C211.586 86.1438 210.227 86.8175 208.632 87.285C207.051 87.7663 205.317 88 203.445 88Z" fill="#141D22"/>
</svg>
