<svg width="246" height="160" viewBox="0 0 246 160" fill="none" xmlns="http://www.w3.org/2000/svg">
<rect width="246" height="160" rx="14" fill="#F1F7F7"/>
<path d="M38.2429 83.56C38.5276 84.5939 38.9733 85.5416 39.58 86.4154C40.1743 87.277 40.8924 88.04 41.7095 88.68C42.5267 89.32 43.4429 89.8123 44.4581 90.1693C45.4733 90.5262 46.5505 90.7108 47.64 90.6985C49.3114 90.6985 50.7724 90.3539 52.0105 89.6523C53.261 88.9631 54.2514 88.1754 54.9943 87.2769H61.0238C60.4543 88.4954 59.699 89.6277 58.8076 90.637C57.9038 91.6708 56.8638 92.5693 55.7124 93.3323C54.5362 94.1077 53.261 94.7108 51.9238 95.117C50.5743 95.56 49.1381 95.7693 47.64 95.7693C45.6095 95.7693 43.6905 95.3754 41.8952 94.6C40.1371 93.8493 38.5524 92.7662 37.2029 91.4246C35.8533 90.0708 34.7762 88.4831 34.0333 86.7354C33.241 84.9262 32.8448 82.9693 32.8571 81C32.8571 78.9693 33.241 77.0616 34.0333 75.2646C34.7886 73.5169 35.8657 71.9169 37.2029 70.5754C38.5524 69.2339 40.1495 68.1508 41.8952 67.4C43.7029 66.6123 45.659 66.2185 47.64 66.2308C49.6705 66.2308 51.5771 66.6246 53.3848 67.4C55.1429 68.1508 56.7276 69.2339 58.0771 70.5754C59.4267 71.9293 60.5038 73.5169 61.259 75.2646C62.039 77.0616 62.4352 78.9693 62.4352 81C62.4352 81.4677 62.4229 81.9108 62.3857 82.3293C62.3486 82.76 62.299 83.1662 62.2248 83.56H38.2429ZM57.0371 78.4893C56.7524 77.4677 56.319 76.4954 55.7248 75.6093C55.1429 74.7354 54.4248 73.96 53.5952 73.32C52.7657 72.68 51.8371 72.1754 50.8467 71.8308C49.819 71.4739 48.7295 71.2893 47.64 71.3016C46.5505 71.3016 45.4857 71.4862 44.4581 71.8554C43.4552 72.2246 42.5267 72.7293 41.6848 73.3693C40.8552 74.0093 40.1371 74.7723 39.5429 75.6339C38.9486 76.5077 38.5152 77.4677 38.2305 78.4893H57.0371ZM63.339 69.7508L66.9667 66.2308L77.7505 77.3693L88.5343 66.2308L92.1619 69.7508L81.2667 81L92.1619 92.2493L88.5343 95.7693L77.7505 84.6308L66.9667 95.7693L63.339 92.2493L74.2219 81L63.339 69.7508ZM95.3067 80.2493C95.3067 78.3293 95.6657 76.52 96.3962 74.8093C97.1019 73.1354 98.1295 71.6216 99.4171 70.3293C100.705 69.0493 102.228 68.0277 103.899 67.3139C105.62 66.5877 107.477 66.2062 109.347 66.2185C111.266 66.2185 113.086 66.5877 114.794 67.3139C116.466 68.0154 117.989 69.0493 119.276 70.3293C120.564 71.6216 121.579 73.1354 122.285 74.8093C123.015 76.5323 123.387 78.3785 123.374 80.2493V94.9077H117.828V79.9785C117.84 78.8462 117.605 77.7139 117.159 76.68C116.738 75.6708 116.119 74.76 115.351 73.9846C114.571 73.2093 113.668 72.5939 112.652 72.1754C111.612 71.7323 110.486 71.4985 109.347 71.5108C108.17 71.5108 107.069 71.7323 106.041 72.1754C105.013 72.6185 104.11 73.2216 103.342 73.9846C102.574 74.76 101.955 75.6708 101.522 76.68C101.076 77.7262 100.841 78.8462 100.853 79.9908V94.92H95.3067V80.2493ZM132.623 83.56C132.908 84.5939 133.353 85.5416 133.96 86.4154C134.554 87.277 135.272 88.04 136.09 88.68C136.907 89.32 137.823 89.8123 138.838 90.1693C139.853 90.5262 140.93 90.7108 142.02 90.6985C143.691 90.6985 145.152 90.3539 146.403 89.6523C147.641 88.9631 148.644 88.1754 149.387 87.2769H155.416C154.847 88.4954 154.091 89.6277 153.2 90.637C152.296 91.6708 151.256 92.5693 150.105 93.3323C148.929 94.1077 147.653 94.7108 146.316 95.117C144.942 95.5477 143.518 95.757 142.02 95.757C139.99 95.757 138.083 95.3631 136.275 94.5877C134.517 93.837 132.932 92.7539 131.583 91.4123C130.233 90.0585 129.156 88.4708 128.401 86.7231C127.621 84.9139 127.212 82.957 127.225 80.9877C127.225 78.957 127.621 77.0493 128.401 75.2523C129.156 73.5046 130.233 71.9169 131.583 70.5631C132.932 69.2216 134.53 68.1385 136.275 67.3877C138.083 66.6 140.039 66.2062 142.008 66.2185C144.038 66.2185 145.945 66.6123 147.752 67.3877C149.51 68.1385 151.095 69.2216 152.445 70.5631C153.794 71.9169 154.871 73.5046 155.627 75.2523C156.407 77.0493 156.803 78.957 156.803 80.9877C156.803 81.4554 156.79 81.8985 156.753 82.3169C156.716 82.7477 156.667 83.1539 156.592 83.5477L132.623 83.56ZM151.417 78.4893C151.132 77.4677 150.699 76.4954 150.105 75.6093C149.523 74.7354 148.805 73.96 147.975 73.32C147.146 72.68 146.217 72.1754 145.227 71.8308C144.199 71.4739 143.11 71.2893 142.02 71.3016C140.93 71.3016 139.866 71.4862 138.838 71.8554C137.835 72.2246 136.907 72.7293 136.065 73.3693C135.235 74.0093 134.517 74.7723 133.935 75.6339C133.341 76.5077 132.908 77.4677 132.623 78.4893H151.417ZM172.39 95.7693C169.147 95.7693 166.349 95.0185 163.984 93.5046C161.619 91.9908 159.96 89.9231 158.994 87.2893H164.925C165.668 88.4216 166.708 89.3077 168.045 89.9354C169.394 90.5631 170.855 90.8831 172.341 90.8708C174.186 90.8708 175.622 90.5385 176.637 89.8862C177.652 89.2339 178.16 88.3354 178.16 87.1908C178.16 86.2677 177.789 85.5539 177.07 85.0616C176.34 84.5693 175.127 84.1508 173.418 83.8308L169.258 83.0308C165.99 82.4277 163.6 81.4677 162.102 80.1508C160.604 78.8339 159.861 77.0616 159.861 74.8216C159.861 73.5785 160.133 72.4339 160.69 71.3877C161.248 70.3293 162.028 69.4062 162.981 68.6677C163.959 67.9046 165.123 67.3139 166.472 66.8831C167.822 66.4523 169.32 66.2431 170.954 66.2431C173.975 66.2431 176.6 66.9569 178.804 68.4093C181.008 69.8493 182.555 71.8431 183.447 74.4031H177.516C176.91 73.3693 176.03 72.5693 174.879 72.0031C173.728 71.4369 172.428 71.1539 171.004 71.1539C169.295 71.1539 167.97 71.4616 167.03 72.0893C166.089 72.7169 165.618 73.5908 165.618 74.7231C165.618 75.5354 165.977 76.2 166.708 76.6923C167.438 77.1846 168.639 77.6031 170.31 77.9108L174.47 78.7108C177.702 79.3139 180.091 80.2985 181.627 81.6646C183.162 83.0308 183.917 84.84 183.917 87.08C183.917 88.36 183.632 89.5293 183.063 90.5754C182.469 91.6462 181.664 92.5816 180.686 93.32C179.67 94.1077 178.457 94.7108 177.033 95.1293C175.61 95.56 174.062 95.7693 172.39 95.7693ZM199.616 95.7693C196.372 95.7693 193.574 95.0185 191.21 93.5046C188.845 91.9908 187.186 89.9231 186.22 87.2893H192.138C192.881 88.4216 193.933 89.3077 195.258 89.9354C196.608 90.5631 198.069 90.8831 199.554 90.8708C201.399 90.8708 202.835 90.5385 203.85 89.8862C204.866 89.2339 205.373 88.3354 205.373 87.1908C205.373 86.2677 205.002 85.5539 204.284 85.0616C203.553 84.5693 202.34 84.1508 200.631 83.8308L196.471 83.0308C193.19 82.4277 190.813 81.4677 189.315 80.1508C187.817 78.8339 187.074 77.0616 187.074 74.8216C187.074 73.5785 187.347 72.4339 187.904 71.3877C188.461 70.3293 189.241 69.4062 190.194 68.6677C191.172 67.9046 192.336 67.3139 193.686 66.8831C195.035 66.4523 196.533 66.2431 198.168 66.2431C201.189 66.2431 203.813 66.9569 206.017 68.4093C208.221 69.8493 209.769 71.8431 210.66 74.4031H204.73C204.123 73.3693 203.244 72.5693 202.092 72.0031C200.941 71.4369 199.641 71.1539 198.217 71.1539C196.509 71.1539 195.184 71.4616 194.243 72.0893C193.302 72.7169 192.831 73.5908 192.831 74.7231C192.831 75.5354 193.19 76.2 193.921 76.6923C194.651 77.1846 195.852 77.6031 197.524 77.9108L201.684 78.7108C204.915 79.3139 207.305 80.2985 208.84 81.6646C210.375 83.0308 211.13 84.84 211.13 87.08C211.13 88.36 210.846 89.5293 210.276 90.5754C209.682 91.6462 208.877 92.5816 207.899 93.32C206.884 94.1077 205.67 94.7108 204.247 95.1293C202.835 95.56 201.288 95.7693 199.616 95.7693Z" fill="#141D22"/>
</svg>
