<svg width="160" height="37" viewBox="0 0 160 37" fill="none" xmlns="http://www.w3.org/2000/svg">
<g clip-path="url(#clip0_12_90)">
<path d="M40.159 29.2292V16.2039H37.811V13.2081H40.159C40.159 9.30032 42.4007 7.34644 46.884 7.34644V10.7647C46.3482 10.7647 45.9127 10.8033 45.5816 10.8785C45.2484 10.9556 44.9855 11.0897 44.7929 11.2847C44.6002 11.4797 44.4657 11.7356 44.3915 12.0504C44.3152 12.3652 44.2791 12.7511 44.2791 13.2061H46.9823V16.2019H44.2791V29.2271H40.1611L40.159 29.2292Z" fill="white"/>
<path d="M57.1129 29.2292C56.9844 28.8169 56.8982 28.3396 56.856 27.7973C56.3623 28.362 55.7081 28.8129 54.8933 29.148C54.0785 29.4851 53.1353 29.6517 52.0617 29.6517C50.2374 29.6517 48.9029 29.2455 48.056 28.431C47.2091 27.6166 46.7856 26.5584 46.7856 25.2565C46.7856 24.1069 46.9683 23.1888 47.3335 22.5044C47.6988 21.8199 48.2025 21.2837 48.8447 20.8917C49.4889 20.5017 50.2555 20.2133 51.1445 20.0285C52.0336 19.8437 53.0049 19.6751 54.0565 19.5248C55.106 19.3724 55.8145 19.1714 56.1797 18.9216C56.5449 18.6717 56.7276 18.2655 56.7276 17.7009C56.7276 17.1789 56.4867 16.7727 56.0031 16.4802C55.5215 16.1877 54.8712 16.0415 54.0565 16.0415C53.0912 16.0415 52.3988 16.2588 51.9814 16.6935C51.5639 17.1281 51.3011 17.7029 51.1927 18.4199H47.2994C47.3195 17.5953 47.4539 16.8356 47.7008 16.141C47.9476 15.4464 48.345 14.8493 48.8908 14.3496C49.4367 13.85 50.1511 13.4661 51.0301 13.1939C51.9091 12.9218 52.9808 12.7877 54.2471 12.7877C55.5134 12.7877 56.547 12.9299 57.4159 13.2102C58.2849 13.4925 58.9813 13.8987 59.5071 14.4309C60.0328 14.963 60.4121 15.6251 60.6489 16.4172C60.8838 17.2094 61.0022 18.1051 61.0022 19.1043V29.2313H57.1089L57.1129 29.2292ZM56.8239 21.3812C56.6092 21.5985 56.2981 21.7711 55.8907 21.9032C55.4833 22.0331 54.8933 22.1753 54.1207 22.3256C52.9186 22.5653 52.0938 22.8679 51.6442 23.2376C51.1947 23.6072 50.9679 24.1394 50.9679 24.834C50.9679 26.0283 51.6442 26.6254 52.9948 26.6254C53.5307 26.6254 54.0304 26.534 54.4919 26.3492C54.9535 26.1643 55.3489 25.9145 55.682 25.5997C56.0151 25.2849 56.2821 24.9152 56.4867 24.4928C56.6894 24.0703 56.7918 23.6194 56.7918 23.1421L56.8239 21.3832V21.3812Z" fill="white"/>
<path d="M66.8622 29.2291L61.1989 13.2101H65.8648L69.1781 23.792L72.5235 13.2101H76.9305L71.2351 29.2291H66.8602H66.8622Z" fill="white"/>
<path d="M77.8959 29.2292V7.34851H82.0139V15.2941C83.194 13.6225 84.7593 12.7877 86.712 12.7877C87.7415 12.7877 88.6586 12.9888 89.4634 13.3909C90.2681 13.7931 90.9484 14.3618 91.5063 15.1011C92.0642 15.8384 92.4877 16.7138 92.7767 17.7232C93.0656 18.7327 93.2101 19.8457 93.2101 21.0603C93.2101 22.4069 93.0375 23.6113 92.6944 24.6735C92.3512 25.7378 91.8796 26.6376 91.2795 27.3769C90.6795 28.1142 89.955 28.6788 89.1081 29.0708C88.2612 29.4608 87.3441 29.6578 86.3567 29.6578C84.384 29.6578 82.915 28.8657 81.9497 27.2814L81.9176 29.2353H77.8959V29.2292ZM85.3915 26.2009C86.443 26.2009 87.3 25.75 87.9662 24.8502C88.6305 23.9505 88.9636 22.7826 88.9636 21.3507C88.9636 18.0522 87.7615 16.401 85.3593 16.401C82.9571 16.401 81.8534 18.1376 81.8534 21.6107C81.8534 22.9776 82.1905 24.0845 82.8668 24.9315C83.5431 25.7784 84.384 26.2009 85.3915 26.2009Z" fill="white"/>
<path d="M94.5948 29.2292V13.2102H98.5202V15.1316C98.8634 14.5893 99.2226 14.1668 99.5979 13.8622C99.9732 13.5575 100.359 13.3239 100.756 13.1614C101.153 12.999 101.555 12.8954 101.962 12.8527C102.369 12.8101 102.787 12.7877 103.216 12.7877H103.764V17.118C103.379 17.053 102.992 17.0205 102.606 17.0205C100.053 17.0205 98.7771 18.3122 98.7771 20.8958V29.2313H94.5948V29.2292Z" fill="white"/>
<path d="M111.677 29.6517C110.391 29.6517 109.243 29.4445 108.235 29.0322C107.228 28.6199 106.375 28.0451 105.677 27.3058C104.98 26.5685 104.448 25.6769 104.083 24.6349C103.718 23.593 103.535 22.4536 103.535 21.2166C103.535 19.9797 103.722 18.8078 104.099 17.7659C104.474 16.7239 105.016 15.8343 105.725 15.095C106.433 14.3577 107.286 13.787 108.283 13.3848C109.281 12.9827 110.413 12.7816 111.677 12.7816C112.941 12.7816 114.037 12.9827 115.022 13.3848C116.01 13.787 116.851 14.3516 117.547 15.0788C118.243 15.8059 118.779 16.6914 119.157 17.7334C119.532 18.7753 119.721 19.9371 119.721 21.2166C119.721 22.4962 119.532 23.6539 119.157 24.6837C118.781 25.7155 118.245 26.599 117.547 27.3383C116.851 28.0756 116.002 28.6463 115.004 29.0485C114.007 29.4506 112.897 29.6517 111.675 29.6517H111.677ZM111.677 26.1034C114.23 26.1034 115.506 24.4745 115.506 21.2187C115.506 17.9629 114.23 16.3665 111.677 16.3665C109.124 16.3665 107.848 17.9832 107.848 21.2187C107.848 24.4542 109.124 26.1034 111.677 26.1034Z" fill="white"/>
<path d="M130.788 29.2292L127.314 22.0331L125.288 24.1495V29.2292H121.073V7.34851H125.288V19.2973L130.499 13.2081H135.615L130.307 19.1023L135.486 29.2292H130.788Z" fill="white"/>
<path d="M138.637 22.3255C138.701 23.5422 139.051 24.5069 139.683 25.2239C140.315 25.9408 141.146 26.2983 142.175 26.2983C142.862 26.2983 143.468 26.1419 143.993 25.8271C144.519 25.5123 144.856 25.0736 145.007 24.5089H149.318C148.824 26.1582 147.967 27.4296 146.743 28.3192C145.521 29.2088 144.062 29.6536 142.368 29.6536C137.092 29.6536 134.453 26.7452 134.453 20.9282C134.453 19.6912 134.623 18.5721 134.969 17.5749C135.312 16.5776 135.81 15.7185 136.466 15.0035C137.12 14.2866 137.919 13.7382 138.862 13.3584C139.805 12.9786 140.889 12.7897 142.111 12.7897C144.555 12.7897 146.406 13.5818 147.66 15.166C148.914 16.7503 149.542 19.1388 149.542 22.3296H138.635L138.637 22.3255ZM145.232 19.6547C145.21 19.0677 145.107 18.5538 144.927 18.107C144.744 17.6622 144.503 17.2926 144.202 17.0001C143.901 16.7076 143.558 16.4903 143.173 16.3481C142.787 16.208 142.39 16.1369 141.983 16.1369C141.146 16.1369 140.421 16.4456 139.811 17.0651C139.201 17.6845 138.852 18.5457 138.766 19.6547H145.232Z" fill="white"/>
<path d="M150.831 29.2292V13.2102H154.756V15.1316C155.099 14.5893 155.458 14.1668 155.834 13.8622C156.209 13.5575 156.594 13.3239 156.992 13.1614C157.389 12.999 157.79 12.8954 158.198 12.8527C158.605 12.8101 159.023 12.7877 159.452 12.7877H160V17.118C159.615 17.053 159.227 17.0205 158.842 17.0205C156.289 17.0205 155.013 18.3122 155.013 20.8958V29.2313H150.831V29.2292Z" fill="white"/>
<path d="M0 12.8628V24.1352C0 26.7167 1.36064 29.1032 3.57018 30.395L13.2171 36.0312C15.4266 37.3229 18.1479 37.3229 20.3575 36.0312L30.0044 30.395C32.2139 29.1032 33.5746 26.7187 33.5746 24.1352V12.8628C33.5746 10.2813 32.2139 7.89477 30.0044 6.60301L20.3575 0.96882C18.1479 -0.32294 15.4266 -0.32294 13.2171 0.96882L3.57018 6.60504C1.36064 7.89477 0 10.2813 0 12.8628Z" fill="#00377B"/>
<path d="M16.7552 33.6366V18.2918L3.62439 10.6205V23.0466C3.6264 24.8522 4.57764 26.5217 6.12492 27.4256L16.7572 33.6406L16.7552 33.6366Z" fill="url(#paint0_linear_12_90)"/>
<path d="M16.7552 30.5473L6.26941 24.4195V12.1641C9.64292 14.1362 16.7532 18.2918 16.7532 18.2918V30.5452L16.7552 30.5473Z" fill="#BFD730"/>
<path style="mix-blend-mode:multiply" opacity="0.6" d="M3.6264 23.0445C3.6264 23.9484 3.86521 24.8156 4.29668 25.5732L16.7532 18.2939L3.62439 10.6205V23.0466L3.6264 23.0445Z" fill="url(#paint1_linear_12_90)"/>
<path d="M3.62439 10.6164L16.7552 18.2857L29.886 10.6164L19.2537 4.40541C17.7085 3.50158 15.804 3.50158 14.2587 4.40541L3.6264 10.6164H3.62439Z" fill="url(#paint2_linear_12_90)"/>
<path d="M6.26941 12.162L16.7552 6.0343L27.241 12.162C23.8675 14.1322 16.7552 18.2877 16.7552 18.2877L6.26941 12.162Z" fill="#BFD730"/>
<path style="mix-blend-mode:multiply" opacity="0.6" d="M19.2538 4.40535C18.4811 3.95445 17.6182 3.729 16.7552 3.729V18.2877L29.8861 10.6184L19.2538 4.40738V4.40535Z" fill="url(#paint3_linear_12_90)"/>
<path d="M29.8859 10.6204L16.7571 18.2938V33.6386L27.3853 27.4235C28.9306 26.5197 29.8819 24.8521 29.8839 23.0445V10.6184L29.8859 10.6204Z" fill="url(#paint4_linear_12_90)"/>
<path d="M27.241 12.1661V24.4216L16.7552 30.5494C16.7552 26.607 16.7552 18.2959 16.7552 18.2959L27.239 12.1682L27.241 12.1661Z" fill="#BFD730"/>
<path style="mix-blend-mode:multiply" opacity="0.6" d="M27.3856 27.4235C28.1582 26.9726 28.7824 26.3287 29.2138 25.5732L16.7573 18.2938V33.6386L27.3856 27.4235Z" fill="url(#paint5_linear_12_90)"/>
<path d="M31.7604 7.96385C30.5362 7.13721 28.9167 7.10268 27.6544 7.86839C26.3459 8.66254 25.7058 10.0071 25.7338 11.3476C25.7619 12.6475 25.1519 13.8804 24.2227 14.7781L22.8159 16.1389C22.0673 16.862 21.0739 17.2905 20.0404 17.2601C19.8036 17.254 19.5688 17.2722 19.336 17.3149C18.5333 17.4632 17.3512 17.0651 16.7231 16.539L16.4803 16.3359C15.7036 15.6839 15.2762 14.7314 15.1738 13.7158C15.0554 12.5216 14.2687 11.4187 12.9743 11.0064C11.8164 10.6367 10.55 10.9922 9.74529 11.9123C8.97867 12.7897 8.782 13.9047 9.05293 14.8878C9.27368 15.6921 9.20545 16.5472 8.73584 17.2316L5.64128 21.7508C5.1777 22.4271 4.45724 22.8922 3.65049 22.9775C2.63904 23.0872 1.69783 23.7392 1.29044 24.8624C0.935225 25.8393 1.15999 26.9767 1.86038 27.7383C3.16082 29.156 5.31818 28.9164 6.31358 27.4154C6.78318 26.7086 6.89557 25.8677 6.69889 25.104C6.49821 24.3282 6.69889 23.5036 7.15043 22.8435L10.1888 18.4076C10.6905 17.6764 11.5053 17.2804 12.3803 17.1849C12.3883 17.1849 12.4565 17.189 12.4666 17.189C13.4941 17.0691 14.4534 17.4774 15.2481 18.1456L15.4728 18.3345C16.1451 18.8991 16.5826 19.7319 16.5666 20.6154C16.5465 21.7568 17.0863 22.9024 18.1821 23.599C19.2899 24.3038 20.7127 24.2835 21.8024 23.5483C22.7697 22.8942 23.2775 21.8909 23.3337 20.8652C23.3939 19.7441 23.7852 18.6696 24.5879 17.8938L26.0268 16.5025C26.9159 15.6433 28.114 15.1173 29.3402 15.2168C30.3917 15.3021 31.4714 14.9609 32.3023 14.1749C34.1044 12.4708 33.9559 9.4445 31.7624 7.95979L31.7604 7.96385Z" fill="#00377B"/>
<path d="M3.95152 24.385C3.47991 24.3891 3.04041 24.6288 2.77751 25.0269C2.34203 25.687 2.51863 26.5827 3.17286 27.0234C3.80703 27.4499 4.72616 27.261 5.14559 26.6233C5.58108 25.9632 5.40448 25.0675 4.75024 24.6267C4.51143 24.4663 4.23448 24.383 3.94951 24.385H3.95152Z" fill="white"/>
<path d="M12.0532 12.2981C11.4431 12.3042 10.8752 12.6393 10.5721 13.1735C10.3433 13.5777 10.2851 14.0469 10.4056 14.4957C10.526 14.9446 10.8129 15.3204 11.2123 15.5519C12.011 16.015 13.1088 15.7063 13.5623 14.906C13.7911 14.5018 13.8493 14.0327 13.7289 13.5838C13.6085 13.1349 13.3215 12.7592 12.9221 12.5276C12.6572 12.3733 12.3562 12.2941 12.0532 12.2981Z" fill="white"/>
<path d="M19.916 18.6412C19.3842 18.6452 18.8845 18.8605 18.5092 19.2464C17.7386 20.0406 17.7507 21.3202 18.5353 22.1001C19.2979 22.8556 20.6104 22.8414 21.357 22.0737C21.7302 21.6898 21.9329 21.18 21.9269 20.6418C21.9209 20.1035 21.7082 19.5978 21.3289 19.22C20.9496 18.8422 20.4479 18.6371 19.914 18.6412H19.916Z" fill="white"/>
<path d="M29.6091 8.93065C29.0211 8.93674 28.4612 9.16422 28.0337 9.57246C27.5822 10.003 27.3233 10.588 27.3052 11.2176C27.2871 11.8473 27.5119 12.4444 27.9394 12.9014C28.7923 13.8174 30.3235 13.8621 31.2286 12.9989C31.6801 12.5663 31.939 11.9833 31.9571 11.3537C31.9751 10.7241 31.7504 10.1269 31.3229 9.66995C30.8734 9.18859 30.2653 8.92455 29.6111 8.93065H29.6091Z" fill="white"/>
</g>
<defs>
<linearGradient id="paint0_linear_12_90" x1="17.1096" y1="33.4401" x2="3.74078" y2="10.5611" gradientUnits="userSpaceOnUse">
<stop offset="0.4" stop-color="#76B043"/>
<stop offset="0.95" stop-color="#BFD730"/>
</linearGradient>
<linearGradient id="paint1_linear_12_90" x1="16.7443" y1="18.1151" x2="3.61469" y2="18.1156" gradientUnits="userSpaceOnUse">
<stop offset="0.5" stop-color="#76B043"/>
<stop offset="0.86" stop-color="white"/>
</linearGradient>
<linearGradient id="paint2_linear_12_90" x1="3.61548" y1="11.0261" x2="29.8774" y2="11.0259" gradientUnits="userSpaceOnUse">
<stop offset="0.4" stop-color="#76B043"/>
<stop offset="0.95" stop-color="#BFD730"/>
</linearGradient>
<linearGradient id="paint3_linear_12_90" x1="16.9238" y1="18.3852" x2="23.6071" y2="6.94864" gradientUnits="userSpaceOnUse">
<stop offset="0.5" stop-color="#76B043"/>
<stop offset="0.86" stop-color="white"/>
</linearGradient>
<linearGradient id="paint4_linear_12_90" x1="29.5507" y1="10.4234" x2="16.1822" y2="33.3026" gradientUnits="userSpaceOnUse">
<stop offset="0.4" stop-color="#76B043"/>
<stop offset="0.95" stop-color="#BFD730"/>
</linearGradient>
<linearGradient id="paint5_linear_12_90" x1="16.6072" y1="18.3896" x2="23.2912" y2="29.8277" gradientUnits="userSpaceOnUse">
<stop offset="0.5" stop-color="#76B043"/>
<stop offset="0.86" stop-color="white"/>
</linearGradient>
<clipPath id="clip0_12_90">
<rect width="160" height="37" fill="white"/>
</clipPath>
</defs>
</svg>
